<svg width="30" height="29" viewBox="0 0 30 29" fill="none" xmlns="http://www.w3.org/2000/svg">
<path d="M13.932 0.961599C14.1597 0.306432 15.0863 0.30643 15.314 0.961596L18.4119 9.87387C18.5124 10.1629 18.7821 10.3589 19.0881 10.3651L28.5214 10.5573C29.2149 10.5715 29.5012 11.4527 28.9485 11.8717L21.4297 17.5721C21.1859 17.7569 21.0829 18.074 21.1715 18.3669L23.9037 27.398C24.1046 28.0619 23.355 28.6065 22.7856 28.2103L15.0409 22.821C14.7897 22.6462 14.4563 22.6462 14.2052 22.821L6.4604 28.2103C5.89106 28.6065 5.14146 28.0619 5.34231 27.398L8.07456 18.3669C8.16317 18.074 8.06014 17.7569 7.81631 17.5721L0.297537 11.8717C-0.255189 11.4527 0.0311317 10.5715 0.724606 10.5573L10.158 10.3651C10.4639 10.3589 10.7336 10.1629 10.8341 9.87387L13.932 0.961599Z" fill="#FCE362"/>
</svg>
