<svg width="23" height="22" viewBox="0 0 23 22" fill="none" xmlns="http://www.w3.org/2000/svg">
<path d="M10.6554 1.09996C10.9667 0.204397 12.2332 0.204396 12.5445 1.09996L14.522 6.78895C14.6593 7.18402 15.028 7.45189 15.4462 7.46041L21.4678 7.58313C22.4158 7.60244 22.8071 8.80699 22.0516 9.37979L17.2521 13.0185C16.9188 13.2712 16.778 13.7046 16.8991 14.1049L18.6432 19.8698C18.9178 20.7773 17.8931 21.5217 17.1149 20.9802L12.1711 17.54C11.8278 17.3011 11.3721 17.3011 11.0288 17.54L6.08504 20.9802C5.3068 21.5217 4.28215 20.7773 4.5567 19.8698L6.30078 14.1049C6.4219 13.7046 6.28107 13.2712 5.94777 13.0185L1.1483 9.37979C0.392765 8.80699 0.784145 7.60244 1.73207 7.58313L7.75371 7.46041C8.17188 7.45189 8.54057 7.18402 8.67789 6.78895L10.6554 1.09996Z" fill="#9E9797"/>
</svg>
