<svg width="49" height="49" viewBox="0 0 49 49" fill="none" xmlns="http://www.w3.org/2000/svg">
<path d="M43.3481 49H43.0279C6.00882 46.8704 0.752673 15.6235 0.017944 6.08731C-0.0412578 5.34586 0.0463698 4.60002 0.275806 3.89251C0.505241 3.18499 0.871976 2.52973 1.355 1.96424C1.83802 1.39876 2.42783 0.934181 3.09064 0.59712C3.75345 0.26006 4.47623 0.0571449 5.21757 1.767e-06H15.598C16.3526 -0.000729018 17.09 0.225232 17.7148 0.648614C18.3396 1.072 18.8229 1.67329 19.1021 2.37462L21.9656 9.42308C22.2413 10.1082 22.3098 10.8593 22.1624 11.583C22.015 12.3067 21.6584 12.9712 21.1367 13.4938L17.124 17.5458C17.7508 21.1091 19.4566 24.3938 22.0107 26.9556C24.5647 29.5173 27.8437 31.2324 31.4041 31.8688L35.4922 27.8169C36.0225 27.3008 36.693 26.9524 37.42 26.8149C38.147 26.6775 38.8983 26.7573 39.5803 27.0442L46.6827 29.89C47.3732 30.1781 47.9623 30.6654 48.375 31.2896C48.7876 31.9139 49.0052 32.647 48.9999 33.3954V43.3462C48.9999 44.8456 48.4045 46.2837 47.3445 47.344C46.2846 48.4043 44.8471 49 43.3481 49ZM5.66971 3.76923C5.17006 3.76923 4.69088 3.96779 4.33758 4.32122C3.98427 4.67466 3.78579 5.15402 3.78579 5.65385V5.80462C4.65239 16.9615 10.21 43.3462 43.2351 45.2308C43.4826 45.2461 43.7307 45.2123 43.9651 45.1315C44.1996 45.0507 44.4158 44.9244 44.6013 44.7598C44.7868 44.5952 44.938 44.3956 45.0463 44.1724C45.1545 43.9492 45.2177 43.7069 45.2321 43.4592V33.3954L38.1297 30.5496L32.7228 35.9208L31.8185 35.8077C15.4284 33.7535 13.2054 17.3573 13.2054 17.1877L13.0924 16.2831L18.4427 10.8742L15.6168 3.76923H5.66971Z" fill="#B1ACA9"/>
</svg>
