<svg width="58" height="66" viewBox="0 0 58 66" fill="none" xmlns="http://www.w3.org/2000/svg">
<g filter="url(#filter0_d_3_31)">
<path d="M43.8438 52.529C46.8594 52.529 49.3125 49.7205 49.3125 46.2681C49.3125 42.8157 46.8594 40.0072 43.8438 40.0072C40.8281 40.0072 38.375 42.8157 38.375 46.2681C38.375 49.7205 40.8281 52.529 43.8438 52.529ZM43.8438 41.796C45.9969 41.796 47.75 43.8013 47.75 46.2681C47.75 48.7349 45.9969 50.7402 43.8438 50.7402C41.6906 50.7402 39.9375 48.7349 39.9375 46.2681C39.9375 43.8013 41.6906 41.796 43.8438 41.796Z" fill="#C0B0B0"/>
<path d="M33.2688 43.4955C33.2688 46.091 33.8266 49.3467 34.575 51.1892C36.1063 55.638 39.1188 57.8955 43.5312 57.8955C49.3031 57.8955 54 52.5183 54 45.9104C54 39.4831 49.5969 34.8197 43.5312 34.8197C36.6359 34.8197 34.3859 30.5783 34.2969 30.403C34.2659 30.342 34.2293 30.285 34.1875 30.2331L10.1953 0.935717C10.0882 0.804719 9.94912 0.713642 9.79618 0.674323C9.64325 0.635003 9.48351 0.64926 9.33775 0.71524C9.19198 0.78122 9.06693 0.895872 8.97883 1.04429C8.89073 1.19272 8.84366 1.36805 8.84375 1.5475C8.84375 18.8115 18.9 27.8701 26.2422 34.4816C30.1688 38.0181 33.2688 40.8086 33.2688 43.4955ZM10.475 3.89265L32.9938 31.3905C33.4125 32.1489 36.1875 36.6085 43.5312 36.6085C48.6922 36.6085 52.4375 40.5206 52.4375 45.9104C52.4375 51.5344 48.4422 56.1067 43.5312 56.1067C39.7734 56.1067 37.3188 54.2821 36.0109 50.4826C35.4391 49.0766 34.8313 46.1483 34.8313 43.4955C34.8313 39.9411 31.4672 36.9108 27.2094 33.0755C20.4641 27.0007 11.3469 18.7918 10.475 3.89265ZM8.6875 46.2681C8.6875 49.7206 11.1406 52.529 14.1563 52.529C17.1719 52.529 19.625 49.7206 19.625 46.2681C19.625 42.8157 17.1719 40.0072 14.1563 40.0072C11.1406 40.0072 8.6875 42.8157 8.6875 46.2681ZM18.0625 46.2681C18.0625 48.7349 16.3094 50.7402 14.1563 50.7402C12.0031 50.7402 10.25 48.7349 10.25 46.2681C10.25 43.8013 12.0031 41.7961 14.1563 41.7961C16.3094 41.7961 18.0625 43.8013 18.0625 46.2681Z" fill="#C0B0B0"/>
<path d="M36.2406 28.328C36.161 28.4059 36.0959 28.5014 36.0491 28.6087C36.0024 28.716 35.9749 28.833 35.9685 28.9527C35.962 29.0724 35.9766 29.1924 36.0115 29.3055C36.0463 29.4186 36.1007 29.5225 36.1714 29.6111C36.242 29.6996 36.3275 29.771 36.4227 29.821C36.5179 29.8709 36.621 29.8985 36.7257 29.9019C36.8304 29.9054 36.9347 29.8847 37.0322 29.8411C37.1298 29.7975 37.2188 29.7319 37.2938 29.6482C42.8172 23.8881 49.1562 15.4896 49.1562 1.5475C49.1563 1.36805 49.1093 1.19272 49.0212 1.04429C48.9331 0.895872 48.808 0.78122 48.6623 0.71524C48.5165 0.64926 48.3568 0.635003 48.2038 0.674323C48.0509 0.713642 47.9118 0.804719 47.8047 0.935717L30.7422 21.7684C30.6005 21.9415 30.5246 22.1721 30.5314 22.4093C30.5381 22.6464 30.6269 22.8708 30.7781 23.0331C30.9294 23.1953 31.1307 23.2822 31.3379 23.2744C31.5451 23.2667 31.7411 23.1651 31.8828 22.9919L47.5297 3.88728C46.8641 15.7472 41.2078 23.1458 36.2406 28.328ZM21.0484 34.4547C21.144 34.4123 21.2312 34.3488 21.3053 34.2678C21.3794 34.1868 21.4388 34.0898 21.4801 33.9825C21.5215 33.8752 21.544 33.7596 21.5463 33.6424C21.5486 33.5251 21.5308 33.4085 21.4937 33.2991C21.4567 33.1898 21.4012 33.0899 21.3305 33.0051C21.2597 32.9203 21.175 32.8523 21.0813 32.8049C20.9876 32.7576 20.8866 32.7318 20.7842 32.7292C20.6818 32.7265 20.5799 32.7469 20.4844 32.7893C20.1246 32.954 19.7683 33.1281 19.4156 33.3117C18.0969 33.9825 16.4547 34.8197 14.4688 34.8197C8.40312 34.8197 4 39.4831 4 45.9104C4 52.5183 8.69687 57.8955 14.4688 57.8955C18.8812 57.8955 21.8937 55.638 23.4047 51.2375C24.1953 49.2966 24.3125 45.0482 24.3125 42.6905C24.3125 42.2093 25.5031 41.1825 26.2156 40.5689C26.8734 40.0037 27.5531 39.4169 28.0219 38.8123C28.1595 38.6349 28.2298 38.4021 28.2175 38.1653C28.2052 37.9285 28.1112 37.7069 27.9562 37.5494C27.8013 37.3919 27.598 37.3113 27.3911 37.3254C27.1842 37.3395 26.9907 37.4471 26.8531 37.6245C26.4875 38.0986 25.8719 38.6281 25.275 39.1415C23.9766 40.2613 22.75 41.3167 22.75 42.6905C22.75 46.3969 22.4656 49.3109 21.9703 50.5327C20.6813 54.2821 18.2266 56.1067 14.4688 56.1067C12.1074 56.1038 9.84353 55.0287 8.17382 53.1171C6.50411 51.2055 5.56498 48.6137 5.5625 45.9104C5.5625 40.5188 9.30781 36.6085 14.4688 36.6085C16.7875 36.6085 18.6734 35.6461 20.0516 34.9431C20.4078 34.7606 20.7406 34.5925 21.0484 34.4547Z" fill="#C0B0B0"/>
<path d="M29 32.4762C29.6955 32.4762 30.2593 31.8307 30.2593 31.0344C30.2593 30.2382 29.6955 29.5927 29 29.5927C28.3044 29.5927 27.7406 30.2382 27.7406 31.0344C27.7406 31.8307 28.3044 32.4762 29 32.4762Z" fill="#C0B0B0"/>
</g>
<defs>
<filter id="filter0_d_3_31" x="0" y="0.652588" width="58" height="65.2429" filterUnits="userSpaceOnUse" color-interpolation-filters="sRGB">
<feFlood flood-opacity="0" result="BackgroundImageFix"/>
<feColorMatrix in="SourceAlpha" type="matrix" values="0 0 0 0 0 0 0 0 0 0 0 0 0 0 0 0 0 0 127 0" result="hardAlpha"/>
<feOffset dy="4"/>
<feGaussianBlur stdDeviation="2"/>
<feComposite in2="hardAlpha" operator="out"/>
<feColorMatrix type="matrix" values="0 0 0 0 0 0 0 0 0 0 0 0 0 0 0 0 0 0 0.25 0"/>
<feBlend mode="normal" in2="BackgroundImageFix" result="effect1_dropShadow_3_31"/>
<feBlend mode="normal" in="SourceGraphic" in2="effect1_dropShadow_3_31" result="shape"/>
</filter>
</defs>
</svg>
