<svg width="34" height="34" viewBox="0 0 34 34" fill="none" xmlns="http://www.w3.org/2000/svg">
<path d="M6.2082 0C2.76913 0 0 2.76912 0 6.20818V27.7918C0 31.2308 2.76913 34 6.2082 34H17.9063V20.7081H14.3916V15.9226H17.9063V11.8341C17.9063 8.62197 19.983 5.67268 24.7669 5.67268C26.7038 5.67268 28.1361 5.85863 28.1361 5.85863L28.0234 10.3275C28.0234 10.3275 26.5627 10.3137 24.9688 10.3137C23.2436 10.3137 22.967 11.1086 22.967 12.4281V15.9226H28.1605L27.9342 20.7081H22.967V34H27.7918C31.2309 34 34 31.2309 34 27.7918V6.20822C34 2.76916 31.2309 3.39999e-05 27.7918 3.39999e-05L6.2082 0Z" fill="#B1ACA9"/>
</svg>
