<svg width="30" height="73" viewBox="0 0 30 73" fill="none" xmlns="http://www.w3.org/2000/svg">
<path d="M28 21.461C29.104 21.461 30 20.4701 30 19.2483V16.9117C30 15.6875 29.104 14.6966 28 14.6966C28 -4.26311 2 -4.26311 2 14.6966C0.896 14.6966 0 15.6875 0 16.9117V19.2483C0 20.4701 0.896 21.461 2 21.461H2.281V65.867H2C0.896 65.867 0 66.8579 0 68.0797V70.4163C0 71.6381 0.896 72.6314 2 72.6314H28C29.104 72.6314 30 71.6381 30 70.4163V68.0797C30 66.8579 29.104 65.867 28 65.867H27.719V21.461H28ZM3.914 47.1142V40.0214C11.305 37.846 18.695 29.4076 26.086 27.2321V34.3225C18.695 36.4979 11.305 44.9375 3.914 47.1142ZM26.086 40.6672V47.7575C18.695 49.933 11.305 58.3714 3.914 60.5468V53.4565C11.305 51.2787 18.695 42.8402 26.086 40.6672ZM6.709 65.867C13.168 62.7596 19.627 56.0949 26.086 54.1961V61.2864C22.787 62.2581 20.119 64.0187 17.52 65.867H6.709ZM3.914 33.5853V26.4925C6.972 25.593 10.029 23.6184 13.086 21.461H24.277C17.489 24.3195 10.701 31.5854 3.914 33.5853Z" fill="#C0B0B0"/>
</svg>
