<svg width="44" height="63" viewBox="0 0 44 63" fill="none" xmlns="http://www.w3.org/2000/svg">
<path d="M26.5 1.08301V10.0988M1 7.09351H43V20.6172L35.5 31.1355V49.1671C35.5 49.1671 35.5 61.1881 22 61.1881C8.5 61.1881 8.5 49.1671 8.5 49.1671V31.1355L1 20.6172V7.09351ZM8.5 1.08301V10.0988V1.08301ZM17.5 1.08301V10.0988V1.08301Z" stroke="#C0B0B0" stroke-width="2" stroke-linecap="round" stroke-linejoin="round"/>
<path d="M26.5 41.6539C26.5 39.1642 24.4853 37.146 22 37.146C19.5147 37.146 17.5 39.1642 17.5 41.6539V47.6644C17.5 50.154 19.5147 52.1723 22 52.1723C24.4853 52.1723 26.5 50.154 26.5 47.6644V41.6539Z" stroke="#C0B0B0" stroke-width="2" stroke-linecap="round" stroke-linejoin="round"/>
<path d="M35.5 1.08301V10.0988M1 20.6172H43H1Z" stroke="#C0B0B0" stroke-width="2" stroke-linecap="round" stroke-linejoin="round"/>
</svg>
